<svg xmlns="http://www.w3.org/2000/svg" viewBox="15.48 0.08 470.83 499.07">
  <defs>
    <linearGradient id="a" x1=".639%" x2="99.361%" y1="0%" y2="100%">
      <stop offset="0" stop-color="#FF8F71"/>
      <stop offset="1" stop-color="#FF3E55"/>
    </linearGradient>
  </defs>
  <path fill="url(#a)" fill-rule="evenodd" d="M 428.259 265.19 L 428.259 441.651 L 252.164 441.651 L 252.164 287.571 C 252.164 275.211 262.187 265.19 274.549 265.19 L 428.259 265.19 Z M 134.955 264.928 C 183.582 264.928 223.002 304.347 223.002 352.974 L 223.002 353.342 C 223.002 401.97 183.582 441.389 134.955 441.389 C 86.329 441.389 46.91 401.97 46.91 353.342 L 46.91 352.974 C 46.91 304.347 86.329 264.928 134.955 264.928 Z M 222.74 57.579 L 222.74 211.658 C 222.74 224.018 212.719 234.038 200.358 234.038 L 46.648 234.038 L 46.648 57.579 L 222.74 57.579 Z M 428.259 57.579 L 428.259 234.038 L 274.549 234.038 C 262.187 234.038 252.164 224.018 252.164 211.658 L 252.164 57.579 L 428.259 57.579 Z" style="" transform="matrix(0.927184, 0.374607, -0.374607, 0.927184, 110.79798, -70.775687)"/>
</svg>